<svg width="28" height="28" viewBox="0 0 28 28" fill="none" xmlns="http://www.w3.org/2000/svg">
<path fill-rule="evenodd" clip-rule="evenodd" d="M16.5995 23.3333C14.7487 23.3333 12.8979 23.3337 11.0471 23.332C10.9387 23.332 10.8273 23.3261 10.7223 23.3015C10.4481 23.2374 10.2672 23.0153 10.2663 22.7341C10.263 21.6568 10.2626 20.5794 10.2664 19.5022C10.2676 19.1985 10.4745 18.9675 10.7753 18.9192C10.8762 18.9031 10.9802 18.9012 11.0827 18.9012C14.7713 18.9004 18.4601 18.9005 22.1488 18.9005C22.2901 18.9007 22.4311 18.9011 22.5663 18.9529C22.8018 19.0433 22.945 19.2293 22.9457 19.4781C22.9486 20.5682 22.949 21.6584 22.9454 22.7484C22.9444 23.0251 22.7518 23.2498 22.4771 23.3055C22.3713 23.3271 22.2605 23.3321 22.152 23.3321C20.3011 23.3337 18.4503 23.3333 16.5995 23.3333Z" fill="white"/>
<path fill-rule="evenodd" clip-rule="evenodd" d="M19.2043 11.799C21.0807 11.799 22.957 11.7989 24.8334 11.799C25.338 11.7991 25.5604 12.0215 25.5604 12.5255C25.5605 13.5259 25.5605 14.5262 25.5604 15.5265C25.5602 15.9811 25.3182 16.2233 24.8564 16.2234C21.0972 16.2243 17.338 16.2224 13.5788 16.2261C13.2077 16.2264 12.8611 16.0059 12.8713 15.5306C12.8931 14.505 12.8774 13.4788 12.8782 12.4528C12.8785 12.042 13.1205 11.7999 13.5365 11.7996C15.4258 11.7983 17.315 11.799 19.2043 11.799Z" fill="white"/>
<path fill-rule="evenodd" clip-rule="evenodd" d="M7.32829 10.4552C7.32829 12.1479 7.32844 13.8407 7.32815 15.5336C7.32815 15.9747 7.08401 16.2224 6.63948 16.2233C5.47648 16.2251 4.31333 16.225 3.15034 16.2233C2.69775 16.2227 2.45864 15.9862 2.4585 15.5406C2.45778 12.1551 2.45792 8.7695 2.4585 5.384C2.4585 4.92061 2.69213 4.68698 3.15465 4.68655C4.31765 4.68554 5.4808 4.68525 6.6438 4.68669C7.08847 4.68727 7.32815 4.93127 7.32829 5.3768C7.32844 7.06969 7.32829 8.76244 7.32829 10.4552Z" fill="white"/>
<path fill-rule="evenodd" clip-rule="evenodd" d="M16.6095 9.11112C14.7401 9.11112 12.8707 9.11127 11.0014 9.11098C10.4841 9.11098 10.2647 8.89174 10.2647 8.3771C10.2647 7.37073 10.2645 6.3642 10.2649 5.35782C10.265 4.9621 10.4624 4.73767 10.8554 4.68859C10.9377 4.67822 11.0218 4.6775 11.1051 4.6775C13.9445 4.67693 16.784 4.6919 19.6232 4.66685C20.3586 4.66037 20.9635 4.84794 21.4714 5.38359C21.7708 5.69928 22.1063 5.981 22.4264 6.27726C22.779 6.60374 22.964 6.99947 22.9489 7.48675C22.9393 7.80043 22.9475 8.11482 22.947 8.42893C22.9465 8.87648 22.711 9.11055 22.2561 9.11083C20.3739 9.11155 18.4917 9.11112 16.6095 9.11112Z" fill="white"/>
<path fill-rule="evenodd" clip-rule="evenodd" d="M6.15773 18.8753C6.10396 18.8758 6.05019 18.8763 5.99645 18.8763V18.8753C5.94761 18.8753 5.89876 18.8751 5.84993 18.8749C5.74475 18.8745 5.63959 18.8741 5.5345 18.8756C5.17966 18.8806 4.94458 19.1098 4.93825 19.4638C4.93321 19.7518 4.93364 20.04 4.93825 20.3281C4.94372 20.6657 5.18024 20.9111 5.51593 20.9193C5.843 20.9272 6.17049 20.9268 6.49755 20.9193C6.81569 20.912 7.05321 20.6703 7.05811 20.3554C7.06286 20.0481 7.06214 19.7408 7.05825 19.4334C7.05437 19.1232 6.82606 18.8888 6.51612 18.8775C6.39678 18.8731 6.27724 18.8742 6.15773 18.8753ZM5.86034 23.3079C5.91106 23.3077 5.96178 23.3074 6.01252 23.3074C6.06057 23.3074 6.10864 23.3077 6.15671 23.3081C6.26286 23.3088 6.36902 23.3096 6.47504 23.3067C6.79951 23.2976 7.0605 23.044 7.0677 22.7224C7.07446 22.4147 7.07389 22.107 7.0677 21.7993C7.06208 21.5153 6.89726 21.3089 6.61439 21.265C6.23349 21.2057 5.84813 21.2137 5.46564 21.2647C5.14002 21.308 4.94683 21.5198 4.93877 21.845C4.93157 22.1397 4.93172 22.4348 4.93877 22.7294C4.94683 23.0643 5.19299 23.3003 5.53071 23.307C5.64061 23.309 5.75044 23.3085 5.8603 23.3079H5.86032H5.86034ZM3.5175 20.9263C3.46566 20.9263 3.41382 20.9268 3.36199 20.9272C3.24699 20.9282 3.13202 20.9292 3.01712 20.9253C2.70445 20.9148 2.47312 20.6853 2.46808 20.3764C2.4629 20.0627 2.46174 19.7489 2.46894 19.4354C2.47643 19.1154 2.73583 18.8753 3.05642 18.8771C3.18283 18.8779 3.30927 18.8784 3.43572 18.8788L3.43572 18.8788C3.61078 18.8795 3.78585 18.8801 3.96088 18.8816C4.33933 18.8848 4.58362 19.1255 4.58938 19.5052C4.59355 19.774 4.59384 20.0429 4.58938 20.3116C4.5829 20.6992 4.35113 20.9236 3.96016 20.927C3.85751 20.9279 3.75486 20.9277 3.65221 20.9275L3.5175 20.9273V20.9263ZM3.70185 21.2614C3.64987 21.262 3.59789 21.2625 3.54592 21.2625V21.2609C3.49778 21.2609 3.44964 21.2607 3.4015 21.2605C3.29562 21.26 3.18976 21.2596 3.08397 21.2613C2.71632 21.2674 2.48469 21.4866 2.47174 21.8564C2.46152 22.1442 2.46195 22.4328 2.47159 22.7206C2.48325 23.0693 2.72884 23.3032 3.07548 23.3069C3.38987 23.3102 3.70427 23.3114 4.01866 23.3065C4.35019 23.3015 4.58757 23.0657 4.59217 22.738C4.59649 22.4308 4.59663 22.1233 4.59188 21.8161C4.58699 21.5064 4.35911 21.2762 4.0463 21.2636C3.93163 21.2591 3.81675 21.2603 3.70185 21.2614Z" fill="#38CA9F"/>
</svg>
